<?xml version="1.0" encoding="utf-8"?>
<!DOCTYPE svg PUBLIC "-//W3C//DTD SVG 1.0//EN" "http://www.w3.org/TR/2001/REC-SVG-20010904/DTD/svg10.dtd">
<svg version="1.0" xmlns="http://www.w3.org/2000/svg" width="253px" height="89px" viewBox="0 0 253 89" preserveAspectRatio="xMidYMid meet">
 <g fill="#2b5a62">
  <path d="M0 44.50 l0 -44.50 126.50 0 126.50 0 0 44.50 0 44.50 -126.50 0 -126.50 0 0 -44.50z"/>
 </g>
 <g fill="#ffec00">
  <path d="M0 44.50 l0 -44.50 126.50 0 126.50 0 0 44.50 0 44.50 -126.50 0 -126.50 0 0 -44.50z m35.10 12.30 c1.25 -0.95 3.75 -3.40 5.55 -5.40 l3.30 -3.65 1.55 0.95 c0.85 0.50 2 0.80 2.55 0.65 1.20 -0.30 1.20 -0.15 -0.10 1.65 -1.15 1.50 -1 2.80 0.30 3.35 1.10 0.40 3.45 -1.95 4.95 -4.95 0.85 -1.75 2 -2.95 4.35 -4.50 2.95 -2.05 4.15 -3.40 3 -3.40 -0.25 0 -1.50 0.70 -2.70 1.50 -4.10 2.75 -3.90 1.95 1.35 -5.35 2.30 -3.25 5.55 -7.60 7.25 -9.65 1.65 -2.05 3.05 -4.05 3.05 -4.35 0.05 -2.25 -4.70 1.10 -12.60 8.90 -3 3 -5.90 5.45 -6.35 5.45 -2.40 0 -5.85 3.90 -6.70 7.55 -0.35 1.40 -9.15 10.15 -11.15 11.05 -1.60 0.75 -2.70 0.20 -2.70 -1.40 0 -3.05 5.50 -14.90 8.80 -19.05 1.90 -2.30 2 -2.65 1 -2.65 -2.15 0 -10.35 15.70 -11.15 21.35 -0.35 2.60 0.40 3.65 2.60 3.65 1.05 0 2.35 -0.60 3.85 -1.70z m41.70 -4.70 c1.05 -0.80 3.70 -3.30 5.85 -5.55 2.15 -2.30 4 -4.05 4.10 -3.95 0.50 0.50 -1.70 5.45 -3.10 6.95 -0.90 0.95 -1.65 2.15 -1.65 2.70 0.05 0.85 0.25 0.80 1.50 -0.60 1.70 -1.90 2.30 -2.05 2.75 -0.65 0.40 1.30 1.70 2.60 2.30 2.25 0.70 -0.50 0.50 -2.10 -0.30 -2.45 -0.40 -0.15 -0.75 -0.90 -0.75 -1.65 0 -1.15 0.65 -1.95 3.40 -4.10 1.85 -1.50 4.85 -3.70 6.75 -4.95 3.25 -2.20 4.05 -3.10 2.70 -3.10 -0.75 0 -6.60 3.80 -9.75 6.35 -1.20 1 -2.30 1.60 -2.45 1.45 -0.20 -0.15 0.40 -1.95 1.25 -3.95 0.90 -1.95 1.60 -3.75 1.60 -3.95 0 -1.15 -1.55 0 -4 2.90 -3.85 4.60 -12 12.20 -13.10 12.20 -0.65 0 -0.90 -0.40 -0.90 -1.25 0 -2.30 1.35 -4.60 3.75 -6.45 4 -3 5.90 -6.50 3.90 -7.15 -0.85 -0.30 -5.05 3.75 -6.20 5.90 -0.50 1.05 -1.75 2.50 -2.70 3.25 -1.95 1.50 -2.20 2.20 -0.75 2.20 0.85 0 0.90 0.15 0.45 1.30 -0.35 1 -0.30 1.60 0.30 2.50 1.05 1.60 2.65 1.50 5.05 -0.20z m-12.75 -0.45 c1.10 -3.05 3.85 -7.75 8.50 -14.85 4.85 -7.30 5.40 -8.30 4.50 -8.30 -1.40 0 -13.95 19.60 -14.80 23.15 -0.30 1.05 -0.20 1.35 0.45 1.35 0.45 0 1.05 -0.60 1.35 -1.35z m144.20 -2.20 c1.15 -1.05 2.25 -1.95 2.45 -1.95 0.15 0 0.30 0.55 0.30 1.25 0 1.95 1.65 2.50 4 1.30 l1.90 -1 0.80 1.25 c1.40 2.10 3.50 1.65 8.20 -1.80 2.25 -1.65 4.20 -3 4.35 -3 0.15 0 0.25 0.55 0.25 1.25 0 0.70 0.75 2 1.95 3.25 1.80 1.90 2.10 2.05 4.35 1.90 2.85 -0.20 3.70 -1.40 0.95 -1.40 -2.55 0 -4.55 -1.20 -5.20 -3.05 -0.90 -2.65 -0.65 -3.25 2.05 -5.45 3.25 -2.55 6.25 -6.05 8.60 -9.95 2.90 -4.70 2.10 -6.55 -1.60 -3.75 -1.85 1.45 -8.55 10.20 -10.10 13.20 -1 1.95 -4.70 5 -8.90 7.35 -2.40 1.30 -2.60 1.35 -3.40 0.55 -0.80 -0.75 -0.75 -0.95 0.20 -2.50 0.60 -0.95 1.50 -2.15 2.10 -2.65 1.25 -1.15 1.35 -2.90 0.15 -2.65 -0.45 0.10 -1.75 1.35 -2.85 2.80 -2 2.55 -4.45 4.60 -5.60 4.60 -1.85 0 -0.90 -3.25 1.55 -5.50 0.75 -0.70 3.55 -3.85 6.15 -7 2.60 -3.15 6 -7.05 7.55 -8.60 2.10 -2.20 2.60 -3.05 2.20 -3.45 -0.85 -0.85 -6.70 4.90 -12.45 12.15 -7 8.85 -14.05 15.25 -15.35 13.95 -0.95 -0.95 2.70 -7.60 5.50 -10.05 1.25 -1.10 2.50 -2 2.75 -2 0.85 0 0.95 1.45 0.15 2.95 -0.60 1.20 -0.65 1.55 -0.10 1.55 0.70 0 2.35 -2.50 2.35 -3.55 0 -0.95 -1.55 -2.45 -2.50 -2.45 -1.60 0 -5.80 4.35 -7.55 7.75 -1.55 2.90 -3.05 4.35 -3.80 3.55 -0.45 -0.45 1.85 -6.15 2.90 -7.10 0.50 -0.45 0.95 -1.15 0.95 -1.55 0 -1.90 -2.30 0.45 -4.20 4.25 -1.75 3.45 -1.65 6.25 0.20 6.55 0.70 0.05 1.75 0.70 2.40 1.35 1.15 1.10 1.30 1.15 2.70 0.40 0.85 -0.45 2.45 -1.65 3.65 -2.75z m-18.50 -1.05 c0 -2 0.30 -5.05 0.70 -6.75 0.65 -3.05 0.75 -3.15 2.30 -3.15 2.35 0 5.50 -1.25 8.30 -3.25 2.85 -2.05 2.95 -2.05 2.95 -0.75 0 2.70 7.60 -0.55 8.75 -3.70 0.40 -1.20 0.30 -1.55 -0.65 -2.30 -0.85 -0.70 -1.45 -0.85 -2.60 -0.50 l-1.45 0.40 1.50 -2.90 c2.05 -4.05 1.95 -6.40 -0.30 -8.75 l-1.70 -1.85 -3.90 0.15 c-3.25 0.20 -4.55 0.50 -7.80 2.05 -5.15 2.45 -11.10 6.70 -14.25 10.10 -3.80 4.20 -4.25 7.55 -1.50 11.60 1.10 1.60 2.40 2.60 2.40 1.80 0 -0.20 -0.45 -1 -1 -1.85 -1.85 -2.75 -2.15 -5 -1.05 -7.50 2.45 -5.55 13.75 -13.15 21.85 -14.75 2.65 -0.50 3.25 -0.50 4.65 0.20 4.10 2.15 2.90 7.75 -3 14.05 -2.05 2.15 -4.10 3.75 -6.20 4.80 -3.95 1.95 -5.70 1.85 -6.75 -0.40 -0.40 -0.90 -1.05 -1.65 -1.35 -1.65 -0.80 0 -0.85 1.70 -0.10 2.90 0.45 0.70 0.30 1.90 -0.50 5.10 -1.45 5.75 -1.40 10.50 0.15 10.50 0.35 0 0.55 -1.25 0.55 -3.60z m-89.70 1.80 c1 -0.90 1.90 -0.90 2.25 0 0.75 1.90 2.50 1.40 6.35 -1.80 2.05 -1.75 2.35 -1.85 2.35 -0.95 0 1.60 1.80 3.15 3.15 2.75 0.60 -0.15 2.75 -1.55 4.75 -3 3.50 -2.65 4.25 -2.70 2.90 -0.20 -0.60 1.05 -0.60 1.45 0 2.55 0.90 1.75 2.20 2 4.65 0.90 2.25 -1 2.85 -2.25 0.80 -1.75 -0.70 0.15 -1.80 0.45 -2.50 0.60 -2.60 0.65 -1.85 -3.15 1.40 -7.25 2.55 -3.15 0.25 -2.45 -5.05 1.60 -5.60 4.30 -6.90 5.05 -7.90 4.65 -1 -0.40 -0.50 -2.05 1.35 -4.40 0.80 -1 1.45 -2.10 1.45 -2.35 0 -1.10 -1.20 -0.45 -4.15 2.25 -3.40 3.10 -7 5.70 -7.80 5.70 -1.20 0 -0.40 -2 1.95 -4.95 2.70 -3.35 2.95 -4.05 1.65 -4.05 -0.45 0 -1.20 -0.35 -1.70 -0.80 -1.25 -1.15 -2.65 -0.50 -5.85 2.50 -2.55 2.40 -4.60 5.50 -4.60 6.85 0 0.35 0.40 1.05 0.85 1.55 0.90 1 2.30 0.85 3.70 -0.40z m70.95 1 c0 -0.15 -0.65 -0.90 -1.45 -1.65 -0.85 -0.80 -1.65 -2 -1.85 -2.75 -0.45 -1.90 0.55 -5 2.30 -7 0.85 -0.90 1.50 -1.80 1.50 -2 0 -0.85 -1.75 -0.10 -3.65 1.60 -3.95 3.55 -9.45 7.10 -11 7.10 -1.35 0 -1 -1.65 0.85 -3.80 1.70 -1.95 7.10 -5.55 7.60 -5.05 0.15 0.15 -0.55 1.20 -1.55 2.30 -1.05 1.15 -1.60 2.05 -1.30 2.05 1.90 0 5.70 -4.55 4.65 -5.60 -0.95 -0.95 -4 0.10 -7.10 2.45 -5.15 3.85 -7.10 8.05 -4.20 9.15 1.50 0.60 3.10 -0.10 6.95 -2.95 3.75 -2.80 3.60 -2.80 3.35 0.15 -0.20 2.40 -0.05 2.80 1.40 4.45 1.35 1.60 3.50 2.50 3.50 1.55z m-38 -1.75 c0.95 -0.60 2.65 -1.85 3.80 -2.75 2.45 -2.05 2.85 -2.10 2.20 -0.40 -0.35 0.95 -0.35 1.55 0.05 2 0.85 1 1.60 0.85 4.30 -0.80 1.35 -0.85 3.30 -1.65 4.35 -1.85 1.85 -0.30 1.85 -0.30 1.25 1 -0.45 1.05 -0.45 1.50 0.05 2.10 0.55 0.65 0.80 0.65 2.10 -0.15 1.90 -1.10 2.60 -2.30 1.95 -3.55 -0.85 -1.55 2.90 -5.80 6.15 -7.05 1.60 -0.60 1.25 -1.50 -0.55 -1.50 -0.95 0 -2.20 0.95 -4.60 3.45 -2.75 2.90 -3.65 3.50 -5.45 3.80 -1.20 0.20 -3.45 1 -4.95 1.80 -1.55 0.80 -2.90 1.35 -3.05 1.20 -0.80 -0.75 2.40 -5.15 7.65 -10.65 3.85 -4 5.75 -6.30 5.40 -6.65 -0.75 -0.75 -4.55 2.45 -8.40 7 -1.80 2.25 -3.40 4.05 -3.45 4.05 -0.05 0 0 -0.80 0.10 -1.75 0.25 -2.20 -0.85 -2.75 -3.10 -1.50 -2.35 1.35 -7.75 6.75 -8.85 8.90 -0.95 1.80 -0.95 2 -0.20 3.15 0.95 1.45 1.05 1.45 3.25 0.15z"/>
  <path d="M49 52 c0 -0.80 2.50 -4.15 2.85 -3.85 0.30 0.35 -1.15 3.05 -2.05 3.80 -0.65 0.55 -0.80 0.55 -0.80 0.05z"/>
  <path d="M45.75 47 c-0.25 -0.40 5.30 -6.95 6.30 -7.40 0.55 -0.25 1.55 2.80 1.25 3.75 -0.15 0.50 -0.95 1.65 -1.75 2.55 -1.20 1.30 -1.90 1.60 -3.50 1.60 -1.10 0 -2.15 -0.20 -2.30 -0.50z"/>
  <path d="M46.50 42.95 c0 -0.95 1.85 -2.75 2.35 -2.25 0.20 0.15 -0.25 0.95 -1 1.70 -1 0.95 -1.35 1.10 -1.35 0.55z"/>
  <path d="M54 39.70 c-0.30 -0.70 -0.50 -1.45 -0.50 -1.65 0 -0.60 11.40 -11.55 12 -11.55 0.25 0 -0.90 1.75 -2.65 3.90 -1.70 2.15 -4.10 5.40 -5.35 7.25 -1.25 1.80 -2.40 3.35 -2.65 3.35 -0.20 0 -0.60 -0.60 -0.85 -1.30z"/>
  <path d="M77.75 41 c0.50 -0.55 1 -1 1.15 -1 0.15 0 -0.15 0.45 -0.65 1 -0.50 0.55 -1 1 -1.15 1 -0.15 0 0.15 -0.45 0.65 -1z"/>
  <path d="M234.30 39.65 c1.55 -2.45 6.55 -8.90 7.40 -9.60 1.60 -1.35 1.30 -0.20 -0.80 2.95 -2.50 3.65 -6.25 8 -7 8 -0.30 0 -0.10 -0.60 0.40 -1.35z"/>
  <path d="M206 33.50 c0 -1.05 3.15 -4 4.30 -4 0.65 0 1.20 0.15 1.20 0.30 0 0.95 -1.30 2.35 -3 3.20 -2.25 1.15 -2.50 1.20 -2.50 0.50z"/>
  <path d="M97 49 c0 -1.30 1.70 -3.60 4.35 -5.95 1.55 -1.40 3.05 -2.55 3.25 -2.55 0.80 0 0.35 1.25 -0.90 2.55 -1.10 1.15 -1.45 1.95 -1.65 3.50 -0.05 0.50 -3.80 2.95 -4.45 2.95 -0.35 0 -0.60 -0.25 -0.60 -0.50z"/>
  <path d="M130.50 48.10 c0 -0.50 1.35 -2.45 3.20 -4.60 1.65 -1.95 6.35 -5.60 6.70 -5.25 1.35 1.35 -6.75 10.25 -9.35 10.25 -0.30 0 -0.55 -0.15 -0.55 -0.40z"/>
  <path d="M150.60 46.45 c0.10 -0.35 0.50 -0.75 0.85 -0.85 0.40 -0.15 0.60 0.05 0.45 0.45 -0.10 0.35 -0.50 0.75 -0.85 0.85 -0.40 0.15 -0.60 -0.05 -0.45 -0.45z"/>
 </g>
</svg>